# xmcd
#
# Track frame offsets:
#	150
#	12165
#	23437
#	31955
#	43420
#	50280
#	59425
#	71527
#	81610
#	91830
#
# Disc length: 1404 seconds
#
# Revision: 2
# Processed by: cddbd v1.4PL0 Copyright (c) Steve Scherf et al.
# Submitted via: CDmax 1.8
#
DISCID=7b057a0a
DTITLE=Willie Nelson and Waylon Jennings - Crying
DYEAR=1996
DGENRE=Country
TTITLE0=Waylon Jennings - Crying
TTITLE1=Waylon Jennings - Sally Was a Good Old Girl
TTITLE2=Waylon Jennings - Abilene
TTITLE3=Willie Nelson - I'm Gonna Lose A Lot Of Teardrops
TTITLE4=Waylon Jennings - It's So Easy
TTITLE5=Willie Nelson - Wating Time
TTITLE6=Waylon Jennings - Don't Think Twice
TTITLE7=Willie Nelson - A New Way To Cry
TTITLE8=Willie Nelson - Broken Promises
TTITLE9=Waylon Jennings - A Moment Isn't Very Long
EXTD=
EXTT0=
EXTT1=
EXTT2=
EXTT3=
EXTT4=
EXTT5=
EXTT6=
EXTT7=
EXTT8=
EXTT9=
PLAYORDER=
